<?xml version="1.0" encoding="UTF-8" standalone="no"?>
<!-- Created with Inkscape (http://www.inkscape.org/) -->

<svg
   xmlns:dc="http://purl.org/dc/elements/1.1/"
   xmlns:cc="http://creativecommons.org/ns#"
   xmlns:rdf="http://www.w3.org/1999/02/22-rdf-syntax-ns#"
   xmlns:svg="http://www.w3.org/2000/svg"
   xmlns="http://www.w3.org/2000/svg"
   xmlns:sodipodi="http://sodipodi.sourceforge.net/DTD/sodipodi-0.dtd"
   xmlns:inkscape="http://www.inkscape.org/namespaces/inkscape"
   width="197.78978mm"
   height="174.01016mm"
   viewBox="0 0 700.82993 616.57144"
   id="svg2"
   version="1.1"
   inkscape:version="0.91 r13725"
   sodipodi:docname="step_last_minus_six.svg"
   inkscape:export-filename="C:\Users\Johan\Documents\Phd\beamer_presentation\figs\radiation_dosimetry\step_last_minus_six.png"
   inkscape:export-xdpi="300"
   inkscape:export-ydpi="300">
  <defs
     id="defs4" />
  <sodipodi:namedview
     id="base"
     pagecolor="#ffffff"
     bordercolor="#666666"
     borderopacity="1.0"
     inkscape:pageopacity="0.0"
     inkscape:pageshadow="2"
     inkscape:zoom="0.98994949"
     inkscape:cx="440.35389"
     inkscape:cy="247.26659"
     inkscape:document-units="px"
     inkscape:current-layer="layer1"
     showgrid="false"
     inkscape:window-width="1920"
     inkscape:window-height="1017"
     inkscape:window-x="-8"
     inkscape:window-y="-8"
     inkscape:window-maximized="1"
     fit-margin-top="0"
     fit-margin-left="0"
     fit-margin-right="0"
     fit-margin-bottom="0" />
  <metadata
     id="metadata7">
    <rdf:RDF>
      <cc:Work
         rdf:about="">
        <dc:format>image/svg+xml</dc:format>
        <dc:type
           rdf:resource="http://purl.org/dc/dcmitype/StillImage" />
        <dc:title />
      </cc:Work>
    </rdf:RDF>
  </metadata>
  <g
     inkscape:label="Layer 1"
     inkscape:groupmode="layer"
     id="layer1"
     transform="translate(-28.571434,-15.07645)">
    <rect
       style="color:#000000;clip-rule:nonzero;display:inline;overflow:visible;visibility:visible;opacity:1;isolation:auto;mix-blend-mode:normal;color-interpolation:sRGB;color-interpolation-filters:linearRGB;solid-color:#000000;solid-opacity:1;fill:#ffffff;fill-opacity:1;fill-rule:nonzero;stroke:#000000;stroke-width:1.00007975;stroke-linecap:butt;stroke-linejoin:miter;stroke-miterlimit:4;stroke-dasharray:none;stroke-dashoffset:0;stroke-opacity:1;color-rendering:auto;image-rendering:auto;shape-rendering:auto;text-rendering:auto;enable-background:accumulate"
       id="rect4215"
       width="701.84009"
       height="615.18292"
       x="27.561281"
       y="16.46496"
       inkscape:export-xdpi="300"
       inkscape:export-ydpi="300" />
    <path
       style="fill:none;fill-rule:evenodd;stroke:#000000;stroke-width:1px;stroke-linecap:butt;stroke-linejoin:miter;stroke-opacity:1"
       d="m 146.9772,112.92033 c 0,0 -30.80966,29.7995 -17.1726,42.42641 13.63706,12.6269 31.81981,3.53553 31.81981,3.53553 0,0 16.66752,-5.55584 9.59645,-17.67767 -7.07107,-12.12183 14.64721,-30.30458 -0.50508,-29.7995 -15.15229,0.50508 -11.11168,-23.738576 -23.73858,1.51523 z"
       id="path4138"
       inkscape:connector-curvature="0" />
    <path
       style="fill:none;fill-rule:evenodd;stroke:#000000;stroke-width:0.79518485px;stroke-linecap:butt;stroke-linejoin:miter;stroke-opacity:1"
       d="m 188.24042,100.40443 c 0,0 -22.82727,25.43186 -12.7234,36.20807 10.10388,10.7762 23.57571,3.01733 23.57571,3.01733 0,0 12.34918,-4.74153 7.11014,-15.08669 -5.23905,-10.34516 10.85229,-25.862911 -0.37423,-25.431861 -11.22652,0.43105 -8.23278,-20.25927 -17.58822,1.293151 z"
       id="path4138-7"
       inkscape:connector-curvature="0" />
    <path
       style="fill:none;fill-rule:evenodd;stroke:#000000;stroke-width:0.79518485px;stroke-linecap:butt;stroke-linejoin:miter;stroke-opacity:1"
       d="m 173.59448,149.90041 c 0,0 -22.82727,25.43186 -12.7234,36.20807 10.10388,10.7762 23.57571,3.01733 23.57571,3.01733 0,0 12.34918,-4.74153 7.11014,-15.08669 -5.23905,-10.34516 10.85229,-25.86291 -0.37423,-25.43186 -11.22652,0.43105 -8.23278,-20.25927 -17.58822,1.29315 z"
       id="path4138-7-0"
       inkscape:connector-curvature="0" />
    <path
       style="fill:none;fill-rule:evenodd;stroke:#000000;stroke-width:0.79518485px;stroke-linecap:butt;stroke-linejoin:miter;stroke-opacity:1"
       d="m 215.51581,119.59583 c 0,0 -22.82727,25.43186 -12.7234,36.20807 10.10388,10.7762 23.57571,3.01733 23.57571,3.01733 0,0 12.34918,-4.74153 7.11014,-15.08669 -5.23905,-10.34516 10.85229,-25.86291 -0.37423,-25.43186 -11.22652,0.43105 -8.23278,-20.259268 -17.58822,1.29315 z"
       id="path4138-7-0-0"
       inkscape:connector-curvature="0" />
    <path
       style="fill:none;fill-rule:evenodd;stroke:#000000;stroke-width:0.79518485px;stroke-linecap:butt;stroke-linejoin:miter;stroke-opacity:1"
       d="m 200.8686,169.0933 c 0,0 -22.82727,25.43186 -12.7234,36.20807 10.10388,10.7762 23.57571,3.01733 23.57571,3.01733 0,0 12.34918,-4.74153 7.11014,-15.08669 -5.23905,-10.34516 10.85229,-25.86291 -0.37423,-25.43186 -11.22652,0.43105 -8.23278,-20.25927 -17.58822,1.29315 z"
       id="path4138-7-0-0-1"
       inkscape:connector-curvature="0" />
    <path
       style="fill:#00ff00;fill-opacity:1;fill-rule:evenodd;stroke:#00ff00;stroke-width:2.51718783px;stroke-linecap:butt;stroke-linejoin:miter;stroke-opacity:1"
       d="m 126.81554,154.65938 -2.51628,11.0027 10.68239,-4.11273 z"
       id="path4210"
       inkscape:connector-curvature="0" />
    <path
       style="fill:#00ff00;fill-opacity:1;fill-rule:evenodd;stroke:#00ff00;stroke-width:2.02772307px;stroke-linecap:butt;stroke-linejoin:miter;stroke-opacity:1"
       d="m 149.56663,105.17466 -9.0719,-0.60494 4.62766,7.97559 z"
       id="path4210-4"
       inkscape:connector-curvature="0"
       inkscape:transform-center-x="2.4472441"
       inkscape:transform-center-y="-1.1407682" />
    <path
       style="fill:#00ff00;fill-opacity:1;fill-rule:evenodd;stroke:#00ff00;stroke-width:1.92254364px;stroke-linecap:butt;stroke-linejoin:miter;stroke-opacity:1"
       d="m 131.65797,128.87015 -8.5524,-1.08097 3.93299,7.80801 z"
       id="path4210-4-5"
       inkscape:connector-curvature="0" />
  </g>
</svg>
